<?xml version="1.0" encoding="UTF-8" standalone="no"?>
<svg
   width="640pt"
   height="640pt"
   viewBox="0 0 640.00002 639.99999"
   version="1.1"
   id="svg99"
   xmlns="http://www.w3.org/2000/svg"
   xmlns:svg="http://www.w3.org/2000/svg"
   xmlns:rdf="http://www.w3.org/1999/02/22-rdf-syntax-ns#"
   xmlns:cc="http://creativecommons.org/ns#"
   xmlns:dc="http://purl.org/dc/elements/1.1/">
  <metadata
     id="metadata2">
    <rdf:RDF>
      <cc:Work>
        <dc:type
           rdf:resource="http://purl.org/dc/dcmitype/StillImage" />
        <dc:date>2023-06-03T18:45:45.001735</dc:date>
        <dc:format>image/svg+xml</dc:format>
        <dc:creator>
          <cc:Agent>
            <dc:title>Matplotlib v3.7.1, https://matplotlib.org/</dc:title>
          </cc:Agent>
        </dc:creator>
      </cc:Work>
    </rdf:RDF>
  </metadata>
  <defs
     id="defs6">
    <style
       type="text/css"
       id="style4">*{stroke-linejoin: round; stroke-linecap: butt}</style>
  </defs>
  <g
     id="figure_1"
     transform="translate(76.429883,122.97088)">
    <g
       id="axes_1"
       transform="matrix(2.8203333,0,0,2.8203333,-422.4798,-295.19801)"
       style="stroke-width:1.41827209;stroke-dasharray:none">
      <g
         id="patch_2"
         style="stroke-width:1.41827209;stroke-dasharray:none">
        <path
           d="M 311.42784,99.26016 C 291.47322,79.305544 264.38009,68.0832 236.16,68.0832 c -28.22009,0 -55.31322,11.222344 -75.26784,31.17696 L 236.16,174.528 c 0,0 0,0 0,0 0,0 0,0 0,0 z"
           style="fill:#0000ff;stroke:#ffffff;stroke-width:1.41827209;stroke-linejoin:miter;stroke-dasharray:none"
           id="path11" />
      </g>
      <g
         id="patch_3"
         style="stroke-width:1.41827209;stroke-dasharray:none">
        <path
           d="m 160.89216,99.26016 c -19.95462,19.95462 -31.17696,47.04775 -31.17696,75.26784 0,28.22009 11.22234,55.31322 31.17696,75.26784 L 236.16,174.528 c 0,0 0,0 0,0 0,0 0,0 0,0 z"
           style="fill:#0000ff;stroke:#ffffff;stroke-width:1.41827209;stroke-linejoin:miter;stroke-dasharray:none"
           id="path14" />
      </g>
      <g
         id="patch_4"
         style="stroke-width:1.41827209;stroke-dasharray:none">
        <path
           d="m 160.89216,249.79584 c 19.95462,19.95462 47.04775,31.17696 75.26784,31.17696 28.22009,0 55.31322,-11.22234 75.26784,-31.17696 L 236.16,174.528 c 0,0 0,0 0,0 0,0 0,0 0,0 z"
           style="fill:#0000ff;stroke:#ffffff;stroke-width:1.41827209;stroke-linejoin:miter;stroke-dasharray:none"
           id="path17" />
      </g>
      <g
         id="patch_5"
         style="stroke-width:1.41827209;stroke-dasharray:none">
        <path
           d="m 311.42784,249.79584 c 19.95462,-19.95462 31.17696,-47.04775 31.17696,-75.26784 0,-28.22009 -11.22234,-55.31322 -31.17696,-75.26784 L 236.16,174.528 c 0,0 0,0 0,0 0,0 0,0 0,0 z"
           style="fill:#0000ff;stroke:#ffffff;stroke-width:1.41827209;stroke-linejoin:miter;stroke-dasharray:none"
           id="path20" />
      </g>
      <g
         id="patch_6"
         style="stroke-width:1.41827209;stroke-dasharray:none;fill:#000089;fill-opacity:1">
        <path
           d="M 292.61088,118.07712 C 285.19782,110.66406 276.39663,104.78329 266.711,100.77137 257.02536,96.759451 246.64365,94.6944 236.16,94.6944 v 79.8336 c 0,0 0,0 0,0 0,0 0,0 0,0 z"
           style="fill:#000089;stroke:#ffffff;stroke-width:1.41827209;stroke-linejoin:miter;stroke-dasharray:none;fill-opacity:1"
           id="path23" />
      </g>
      <g
         id="patch_7"
         style="stroke-width:1.41827209;stroke-dasharray:none;fill:#000089;fill-opacity:1">
        <path
           d="m 236.16,94.6944 c -10.48365,0 -20.86536,2.065051 -30.551,6.07697 -9.68563,4.01192 -18.48682,9.89269 -25.89988,17.30575 L 236.16,174.528 c 0,0 0,0 0,0 0,0 0,0 0,0 z"
           style="fill:#000089;stroke:#ffffff;stroke-width:1.41827209;stroke-linejoin:miter;stroke-dasharray:none;fill-opacity:1"
           id="path26" />
      </g>
      <g
         id="patch_8"
         style="stroke-width:1.41827209;stroke-dasharray:none;fill:#000089;fill-opacity:1">
        <path
           d="m 179.70912,118.07712 c -7.41306,7.41306 -13.29383,16.21425 -17.30575,25.89988 -4.01192,9.68564 -6.07697,20.06735 -6.07697,30.551 H 236.16 c 0,0 0,0 0,0 0,0 0,0 0,0 z"
           style="fill:#000089;stroke:#ffffff;stroke-width:1.41827209;stroke-linejoin:miter;stroke-dasharray:none;fill-opacity:1"
           id="path29" />
      </g>
      <g
         id="patch_9"
         style="stroke-width:1.41827209;stroke-dasharray:none;fill:#000089;fill-opacity:1">
        <path
           d="m 156.3264,174.528 c 0,10.48365 2.06505,20.86536 6.07697,30.551 4.01192,9.68563 9.89269,18.48682 17.30575,25.89988 L 236.16,174.528 c 0,0 0,0 0,0 0,0 0,0 0,0 z"
           style="fill:#000089;stroke:#ffffff;stroke-width:1.41827209;stroke-linejoin:miter;stroke-dasharray:none;fill-opacity:1"
           id="path32" />
      </g>
      <g
         id="patch_10"
         style="stroke-width:1.41827209;stroke-dasharray:none;fill:#000089;fill-opacity:1">
        <path
           d="m 179.70912,230.97888 c 7.41306,7.41306 16.21425,13.29383 25.89988,17.30575 9.68564,4.01192 20.06735,6.07697 30.551,6.07697 V 174.528 c 0,0 0,0 0,0 0,0 0,0 0,0 z"
           style="fill:#000089;stroke:#ffffff;stroke-width:1.41827209;stroke-linejoin:miter;stroke-dasharray:none;fill-opacity:1"
           id="path35" />
      </g>
      <g
         id="patch_11"
         style="stroke-width:1.41827209;stroke-dasharray:none;fill:#000089;fill-opacity:1">
        <path
           d="m 236.16,254.3616 c 10.48365,0 20.86536,-2.06505 30.551,-6.07697 9.68563,-4.01192 18.48682,-9.89269 25.89988,-17.30575 L 236.16,174.528 c 0,0 0,0 0,0 0,0 0,0 0,0 z"
           style="fill:#000089;stroke:#ffffff;stroke-width:1.41827209;stroke-linejoin:miter;stroke-dasharray:none;fill-opacity:1"
           id="path38" />
      </g>
      <g
         id="patch_12"
         style="stroke-width:1.41827209;stroke-dasharray:none;fill:#000089;fill-opacity:1">
        <path
           d="m 292.61088,230.97888 c 7.41306,-7.41306 13.29383,-16.21425 17.30575,-25.89988 4.01192,-9.68564 6.07697,-20.06735 6.07697,-30.551 H 236.16 c 0,0 0,0 0,0 0,0 0,0 0,0 z"
           style="fill:#000089;stroke:#ffffff;stroke-width:1.41827209;stroke-linejoin:miter;stroke-dasharray:none;fill-opacity:1"
           id="path41" />
      </g>
      <g
         id="patch_13"
         style="stroke-width:1.41827209;stroke-dasharray:none;fill:#000089;fill-opacity:1">
        <path
           d="m 315.9936,174.528 c 0,-10.48365 -2.06505,-20.86536 -6.07697,-30.551 -4.01192,-9.68563 -9.89269,-18.48682 -17.30575,-25.89988 L 236.16,174.528 c 0,0 0,0 0,0 0,0 0,0 0,0 z"
           style="fill:#000089;stroke:#ffffff;stroke-width:1.41827209;stroke-linejoin:miter;stroke-dasharray:none;fill-opacity:1"
           id="path44" />
      </g>
      <g
         id="patch_14"
         style="stroke-width:1.41827209;stroke-dasharray:none;fill:#00002f;fill-opacity:1">
        <path
           d="m 273.79392,136.89408 c -2.46511,-2.46511 -5.16647,-4.68206 -8.06514,-6.61889 -2.89866,-1.93682 -5.98063,-3.58417 -9.20145,-4.91828 L 236.16,174.528 c 0,0 0,0 0,0 0,0 0,0 0,0 z"
           style="fill:#00002f;stroke:#ffffff;stroke-width:1.41827209;stroke-linejoin:miter;stroke-dasharray:none;fill-opacity:1"
           id="path47" />
      </g>
      <g
         id="patch_15"
         style="stroke-width:1.41827209;stroke-dasharray:none;fill:#00002f;fill-opacity:1">
        <path
           d="m 256.52733,125.35691 c -3.22082,-1.3341 -6.56495,-2.34853 -9.98416,-3.02866 -3.4192,-0.68012 -6.89698,-1.02265 -10.38317,-1.02265 v 53.2224 c 0,0 0,0 0,0 0,0 0,0 0,0 z"
           style="fill:#00002f;stroke:#ffffff;stroke-width:1.41827209;stroke-linejoin:miter;stroke-dasharray:none;fill-opacity:1"
           id="path50" />
      </g>
      <g
         id="patch_16"
         style="stroke-width:1.41827209;stroke-dasharray:none;fill:#00002f;fill-opacity:1">
        <path
           d="m 236.16,121.3056 c -3.48619,0 -6.96397,0.34253 -10.38318,1.02265 -3.4192,0.68013 -6.76333,1.69456 -9.98415,3.02866 L 236.16,174.528 c 0,0 0,0 0,0 0,0 0,0 0,0 z"
           style="fill:#00002f;stroke:#ffffff;stroke-width:1.41827209;stroke-linejoin:miter;stroke-dasharray:none;fill-opacity:1"
           id="path53" />
      </g>
      <g
         id="patch_17"
         style="stroke-width:1.41827209;stroke-dasharray:none;fill:#00002f;fill-opacity:1">
        <path
           d="m 215.79267,125.35691 c -3.22082,1.33411 -6.30279,2.98146 -9.20145,4.91828 -2.89867,1.93683 -5.60003,4.15378 -8.06514,6.61889 L 236.16,174.528 c 0,0 0,0 0,0 0,0 0,0 0,0 z"
           style="fill:#00002f;stroke:#ffffff;stroke-width:1.41827209;stroke-linejoin:miter;stroke-dasharray:none;fill-opacity:1"
           id="path56" />
      </g>
      <g
         id="patch_18"
         style="stroke-width:1.41827209;stroke-dasharray:none;fill:#00002f;fill-opacity:1">
        <path
           d="m 198.52608,136.89408 c -2.46511,2.46511 -4.68206,5.16647 -6.61889,8.06514 -1.93682,2.89866 -3.58417,5.98063 -4.91828,9.20145 L 236.16,174.528 c 0,0 0,0 0,0 0,0 0,0 0,0 z"
           style="fill:#00002f;stroke:#ffffff;stroke-width:1.41827209;stroke-linejoin:miter;stroke-dasharray:none;fill-opacity:1"
           id="path59" />
      </g>
      <g
         id="patch_19"
         style="stroke-width:1.41827209;stroke-dasharray:none;fill:#00002f;fill-opacity:1">
        <path
           d="m 186.98891,154.16067 c -1.3341,3.22082 -2.34853,6.56495 -3.02866,9.98415 -0.68012,3.41921 -1.02265,6.89699 -1.02265,10.38318 H 236.16 c 0,0 0,0 0,0 0,0 0,0 0,0 z"
           style="fill:#00002f;stroke:#ffffff;stroke-width:1.41827209;stroke-linejoin:miter;stroke-dasharray:none;fill-opacity:1"
           id="path62" />
      </g>
      <g
         id="patch_20"
         style="stroke-width:1.41827209;stroke-dasharray:none;fill:#00002f;fill-opacity:1">
        <path
           d="m 182.9376,174.528 c 0,3.48619 0.34253,6.96397 1.02265,10.38317 0.68013,3.41921 1.69456,6.76334 3.02866,9.98416 L 236.16,174.528 c 0,0 0,0 0,0 0,0 0,0 0,0 z"
           style="fill:#00002f;stroke:#ffffff;stroke-width:1.41827209;stroke-linejoin:miter;stroke-dasharray:none;fill-opacity:1"
           id="path65" />
      </g>
      <g
         id="patch_21"
         style="stroke-width:1.41827209;stroke-dasharray:none;fill:#00002f;fill-opacity:1">
        <path
           d="m 186.98891,194.89533 c 1.33411,3.22082 2.98146,6.30279 4.91828,9.20145 1.93683,2.89866 4.15378,5.60003 6.61889,8.06514 L 236.16,174.528 c 0,0 0,0 0,0 0,0 0,0 0,0 z"
           style="fill:#00002f;stroke:#ffffff;stroke-width:1.41827209;stroke-linejoin:miter;stroke-dasharray:none;fill-opacity:1"
           id="path68" />
      </g>
      <g
         id="patch_22"
         style="stroke-width:1.41827209;stroke-dasharray:none;fill:#00002f;fill-opacity:1">
        <path
           d="m 198.52608,212.16192 c 2.46511,2.46511 5.16647,4.68206 8.06514,6.61889 2.89866,1.93682 5.98063,3.58417 9.20145,4.91828 L 236.16,174.528 c 0,0 0,0 0,0 0,0 0,0 0,0 z"
           style="fill:#00002f;stroke:#ffffff;stroke-width:1.41827209;stroke-linejoin:miter;stroke-dasharray:none;fill-opacity:1"
           id="path71" />
      </g>
      <g
         id="patch_23"
         style="stroke-width:1.41827209;stroke-dasharray:none;fill:#00002f;fill-opacity:1">
        <path
           d="m 215.79267,223.69909 c 3.22082,1.3341 6.56495,2.34853 9.98415,3.02866 3.41921,0.68012 6.89699,1.02265 10.38318,1.02265 V 174.528 c 0,0 0,0 0,0 0,0 0,0 0,0 z"
           style="fill:#00002f;stroke:#ffffff;stroke-width:1.41827209;stroke-linejoin:miter;stroke-dasharray:none;fill-opacity:1"
           id="path74" />
      </g>
      <g
         id="patch_24"
         style="stroke-width:1.41827209;stroke-dasharray:none;fill:#00002f;fill-opacity:1">
        <path
           d="m 236.16,227.7504 c 3.48619,0 6.96397,-0.34253 10.38317,-1.02265 3.41921,-0.68013 6.76334,-1.69456 9.98416,-3.02866 L 236.16,174.528 c 0,0 0,0 0,0 0,0 0,0 0,0 z"
           style="fill:#00002f;stroke:#ffffff;stroke-width:1.41827209;stroke-linejoin:miter;stroke-dasharray:none;fill-opacity:1"
           id="path77" />
      </g>
      <g
         id="patch_25"
         style="stroke-width:1.41827209;stroke-dasharray:none;fill:#00002f;fill-opacity:1">
        <path
           d="m 256.52733,223.69909 c 3.22082,-1.33411 6.30279,-2.98146 9.20145,-4.91828 2.89867,-1.93683 5.60003,-4.15378 8.06514,-6.61889 L 236.16,174.528 c 0,0 0,0 0,0 0,0 0,0 0,0 z"
           style="fill:#00002f;stroke:#ffffff;stroke-width:1.41827209;stroke-linejoin:miter;stroke-dasharray:none;fill-opacity:1"
           id="path80" />
      </g>
      <g
         id="patch_26"
         style="stroke-width:1.41827209;stroke-dasharray:none;fill:#00002f;fill-opacity:1">
        <path
           d="m 273.79392,212.16192 c 2.46511,-2.46511 4.68206,-5.16648 6.61889,-8.06514 1.93682,-2.89866 3.58417,-5.98063 4.91828,-9.20145 L 236.16,174.528 c 0,0 0,0 0,0 0,0 0,0 0,0 z"
           style="fill:#00002f;stroke:#ffffff;stroke-width:1.41827209;stroke-linejoin:miter;stroke-dasharray:none;fill-opacity:1"
           id="path83" />
      </g>
      <g
         id="patch_27"
         style="stroke-width:1.41827209;stroke-dasharray:none;fill:#00002f;fill-opacity:1">
        <path
           d="m 285.33109,194.89533 c 1.3341,-3.22082 2.34853,-6.56495 3.02866,-9.98416 0.68012,-3.4192 1.02265,-6.89698 1.02265,-10.38317 H 236.16 c 0,0 0,0 0,0 0,0 0,0 0,0 z"
           style="fill:#00002f;stroke:#ffffff;stroke-width:1.41827209;stroke-linejoin:miter;stroke-dasharray:none;fill-opacity:1"
           id="path86" />
      </g>
      <g
         id="patch_28"
         style="stroke-width:1.41827209;stroke-dasharray:none;fill:#00002f;fill-opacity:1">
        <path
           d="m 289.3824,174.528 c 0,-3.48619 -0.34253,-6.96397 -1.02265,-10.38318 -0.68013,-3.4192 -1.69456,-6.76333 -3.02866,-9.98415 L 236.16,174.528 c 0,0 0,0 0,0 0,0 0,0 0,0 z"
           style="fill:#00002f;stroke:#ffffff;stroke-width:1.41827209;stroke-linejoin:miter;stroke-dasharray:none;fill-opacity:1"
           id="path89" />
      </g>
      <g
         id="patch_29"
         style="stroke-width:1.41827209;stroke-dasharray:none;fill:#00002f;fill-opacity:1">
        <path
           d="m 285.33109,154.16067 c -1.33411,-3.22082 -2.98146,-6.30279 -4.91828,-9.20145 -1.93683,-2.89867 -4.15378,-5.60003 -6.61889,-8.06514 L 236.16,174.528 c 0,0 0,0 0,0 0,0 0,0 0,0 z"
           style="fill:#00002f;stroke:#ffffff;stroke-width:1.41827209;stroke-linejoin:miter;stroke-dasharray:none;fill-opacity:1"
           id="path92" />
      </g>
      <g
         id="matplotlib.axis_1"
         style="stroke-width:1.41827209;stroke-dasharray:none" />
      <g
         id="matplotlib.axis_2"
         style="stroke-width:1.41827209;stroke-dasharray:none" />
    </g>
  </g>
</svg>
